<mxfile host="app.diagrams.net" agent="Mozilla/5.0 (Windows NT 10.0; Win64; x64) AppleWebKit/537.36 (KHTML, like Gecko) Chrome/129.0.0.0 Safari/537.36" version="24.7.17">
  <diagram name="Page-1" id="iF6NioC-ejS35JDFOjd9">
    <mxGraphModel dx="756" dy="448" grid="0" gridSize="10" guides="1" tooltips="1" connect="1" arrows="1" fold="1" page="1" pageScale="1" pageWidth="827" pageHeight="1169" math="0" shadow="0">
      <root>
        <mxCell id="0" />
        <mxCell id="1" parent="0" />
        <mxCell id="p5Rtfu-O9J4iYWWrtATP-3" value="On Prem" style="swimlane;whiteSpace=wrap;html=1;startSize=23;" vertex="1" parent="1">
          <mxGeometry x="56" y="34" width="186" height="319" as="geometry" />
        </mxCell>
        <mxCell id="HVJbjALm6hgedPGyuP-F-45" value="" style="sketch=0;pointerEvents=1;shadow=0;dashed=0;html=1;strokeColor=none;labelPosition=center;verticalLabelPosition=bottom;verticalAlign=top;outlineConnect=0;align=center;shape=mxgraph.office.concepts.firewall;fillColor=#DA4026;rounded=0;fontFamily=Helvetica;fontSize=12;fontColor=default;" parent="p5Rtfu-O9J4iYWWrtATP-3" vertex="1">
          <mxGeometry x="63.5" y="93.00000000000001" width="57" height="49.75" as="geometry" />
        </mxCell>
        <mxCell id="HVJbjALm6hgedPGyuP-F-34" value="Firewall" style="text;html=1;align=center;verticalAlign=middle;whiteSpace=wrap;rounded=0;" parent="p5Rtfu-O9J4iYWWrtATP-3" vertex="1">
          <mxGeometry x="63.5" y="145.75" width="60" height="30" as="geometry" />
        </mxCell>
        <mxCell id="p5Rtfu-O9J4iYWWrtATP-1" value="" style="image;aspect=fixed;html=1;points=[];align=center;fontSize=12;image=img/lib/azure2/networking/Connections.svg;" vertex="1" parent="p5Rtfu-O9J4iYWWrtATP-3">
          <mxGeometry x="121" y="111.88" width="18" height="18" as="geometry" />
        </mxCell>
        <mxCell id="p5Rtfu-O9J4iYWWrtATP-32" value="" style="shape=image;html=1;verticalAlign=top;verticalLabelPosition=bottom;labelBackgroundColor=#ffffff;imageAspect=0;aspect=fixed;image=https://cdn0.iconfinder.com/data/icons/job-seeker/256/laptop_job_seeker_employee_unemployee_work_1-128.png" vertex="1" parent="p5Rtfu-O9J4iYWWrtATP-3">
          <mxGeometry x="40" y="231" width="55" height="55" as="geometry" />
        </mxCell>
        <mxCell id="p5Rtfu-O9J4iYWWrtATP-33" value="" style="shape=image;html=1;verticalAlign=top;verticalLabelPosition=bottom;labelBackgroundColor=#ffffff;imageAspect=0;aspect=fixed;image=https://cdn0.iconfinder.com/data/icons/job-seeker/256/laptop_job_seeker_employee_unemployee_work_1-128.png" vertex="1" parent="p5Rtfu-O9J4iYWWrtATP-3">
          <mxGeometry x="95" y="231" width="55" height="55" as="geometry" />
        </mxCell>
        <mxCell id="p5Rtfu-O9J4iYWWrtATP-35" value="" style="edgeStyle=none;curved=1;rounded=0;orthogonalLoop=1;jettySize=auto;html=1;fontSize=12;startSize=8;endSize=8;entryX=0.5;entryY=1;entryDx=0;entryDy=0;" edge="1" parent="p5Rtfu-O9J4iYWWrtATP-3" source="p5Rtfu-O9J4iYWWrtATP-34" target="HVJbjALm6hgedPGyuP-F-34">
          <mxGeometry relative="1" as="geometry" />
        </mxCell>
        <mxCell id="p5Rtfu-O9J4iYWWrtATP-34" value="" style="shape=image;html=1;verticalAlign=top;verticalLabelPosition=bottom;labelBackgroundColor=#ffffff;imageAspect=0;aspect=fixed;image=https://cdn0.iconfinder.com/data/icons/job-seeker/256/laptop_job_seeker_employee_unemployee_work_1-128.png" vertex="1" parent="p5Rtfu-O9J4iYWWrtATP-3">
          <mxGeometry x="66" y="239" width="55" height="55" as="geometry" />
        </mxCell>
        <mxCell id="p5Rtfu-O9J4iYWWrtATP-4" value="&lt;span style=&quot;&quot;&gt;Azure&lt;/span&gt;" style="swimlane;whiteSpace=wrap;html=1;fontStyle=1" vertex="1" parent="1">
          <mxGeometry x="354" y="32" width="307" height="320" as="geometry" />
        </mxCell>
        <mxCell id="p5Rtfu-O9J4iYWWrtATP-10" value="" style="verticalLabelPosition=bottom;verticalAlign=top;html=1;shape=mxgraph.basic.rect;fillColor2=none;strokeWidth=1;size=20;indent=5;dashed=1;" vertex="1" parent="p5Rtfu-O9J4iYWWrtATP-4">
          <mxGeometry x="39" y="62" width="230" height="197" as="geometry" />
        </mxCell>
        <mxCell id="HVJbjALm6hgedPGyuP-F-52" value="" style="image;aspect=fixed;html=1;points=[];align=center;fontSize=12;image=img/lib/azure2/networking/Virtual_Networks.svg;rounded=0;dashed=1;strokeColor=default;verticalAlign=middle;fontFamily=Helvetica;fontColor=default;fillColor=default;" parent="p5Rtfu-O9J4iYWWrtATP-4" vertex="1">
          <mxGeometry x="52" y="65" width="31.83" height="19" as="geometry" />
        </mxCell>
        <mxCell id="HVJbjALm6hgedPGyuP-F-26" value="" style="image;sketch=0;aspect=fixed;html=1;points=[];align=center;fontSize=12;image=img/lib/mscae/VPN_Gateway.svg;" parent="p5Rtfu-O9J4iYWWrtATP-4" vertex="1">
          <mxGeometry x="64" y="101" width="37.8" height="42" as="geometry" />
        </mxCell>
        <mxCell id="HVJbjALm6hgedPGyuP-F-46" value="" style="image;aspect=fixed;html=1;points=[];align=center;fontSize=12;image=img/lib/azure2/databases/Azure_SQL_VM.svg;rounded=0;dashed=1;strokeColor=default;verticalAlign=middle;fontFamily=Helvetica;fontColor=default;fillColor=default;" parent="p5Rtfu-O9J4iYWWrtATP-4" vertex="1">
          <mxGeometry x="123.57" y="155" width="59.87" height="56.12" as="geometry" />
        </mxCell>
        <mxCell id="HVJbjALm6hgedPGyuP-F-43" value="" style="image;aspect=fixed;html=1;points=[];align=center;fontSize=12;image=img/lib/azure2/general/Subscriptions.svg;" parent="p5Rtfu-O9J4iYWWrtATP-4" vertex="1">
          <mxGeometry y="22" width="24.79" height="40" as="geometry" />
        </mxCell>
        <mxCell id="p5Rtfu-O9J4iYWWrtATP-25" value="" style="image;aspect=fixed;html=1;points=[];align=center;fontSize=12;image=img/lib/azure2/general/Resource_Groups.svg;" vertex="1" parent="p5Rtfu-O9J4iYWWrtATP-4">
          <mxGeometry x="225" y="51" width="30.81" height="29" as="geometry" />
        </mxCell>
        <mxCell id="p5Rtfu-O9J4iYWWrtATP-24" value="" style="image;aspect=fixed;html=1;points=[];align=center;fontSize=12;image=img/lib/azure2/networking/Connections.svg;" vertex="1" parent="p5Rtfu-O9J4iYWWrtATP-4">
          <mxGeometry x="46" y="115" width="18" height="18" as="geometry" />
        </mxCell>
        <mxCell id="p5Rtfu-O9J4iYWWrtATP-39" value="SQL Server" style="text;html=1;align=center;verticalAlign=middle;whiteSpace=wrap;rounded=0;fontSize=10;strokeWidth=1;" vertex="1" parent="p5Rtfu-O9J4iYWWrtATP-4">
          <mxGeometry x="119.5" y="215" width="68" height="30" as="geometry" />
        </mxCell>
        <mxCell id="p5Rtfu-O9J4iYWWrtATP-41" value="VPN" style="text;html=1;align=center;verticalAlign=middle;whiteSpace=wrap;rounded=0;fontSize=10;" vertex="1" parent="p5Rtfu-O9J4iYWWrtATP-4">
          <mxGeometry x="56.1" y="133.74" width="53.6" height="30" as="geometry" />
        </mxCell>
        <mxCell id="p5Rtfu-O9J4iYWWrtATP-36" value="" style="endArrow=classic;startArrow=classic;html=1;rounded=0;fontSize=12;startSize=8;endSize=8;curved=1;entryX=0.056;entryY=0.389;entryDx=0;entryDy=0;entryPerimeter=0;" edge="1" parent="1" target="p5Rtfu-O9J4iYWWrtATP-24">
          <mxGeometry width="50" height="50" relative="1" as="geometry">
            <mxPoint x="194" y="154" as="sourcePoint" />
            <mxPoint x="394" y="157" as="targetPoint" />
          </mxGeometry>
        </mxCell>
      </root>
    </mxGraphModel>
  </diagram>
</mxfile>
